# xmcd
#
# Track frame offsets:
#   150
#   10188
#   20909
#   34003
#   44133
#   53224
#   62995
#   74986
#   86136
#   97719
#
# Disc length: 1445 seconds
#
# Revision: 0
# Processed by: cddbd v1.4PL0 Copyright (c) Steve Scherf et al.
# Submitted via: uFREEDB 1.6.0
#
DISCID=9005a30a
DTITLE=Martin, Dean - Sittin' On Top Of The World
DYEAR=1973
DGENRE=Vocal
TTITLE0=I'm Sittin' On Top Of The World
TTITLE1=I Wonder Who's Kissing Her Now
TTITLE2=Smile
TTITLE3=Ramblin' Rose
TTITLE4=Almost Like Being In Love
TTITLE5=It's A Good Day
TTITLE6=At Sundown
TTITLE7=When The Red, Red Robin Comes Bob, Bob, Bobbin' Al
TTITLE8=You Made Me Love You
TTITLE9=I'm Forever Blowin' Bubbles
EXTD=
EXTT0=
EXTT1=
EXTT2=
EXTT3=
EXTT4=
EXTT5=
EXTT6=
EXTT7=
EXTT8=
EXTT9=
PLAYORDER=
